# xmcd
#
# Track frame offsets:
#	150
#	18212
#	37395
#	57525
#	75832
#	94417
#	111260
#	132172
#	149932
#	174587
#	195970
#
# Disc length: 2882 seconds
#
# Revision: 7
# Processed by: cddbd v1.5.2PL0 Copyright (c) Steve Scherf et al.
# Submitted via: audiograbber 1.83.01
#
DISCID=9b0b400b
DTITLE=Eva Cassidy - Eva By Heart
DYEAR=1997
DGENRE=Blues
TTITLE0=I Know You By Heart
TTITLE1=Time Is A Healer
TTITLE2=Wayfaring Stranger
TTITLE3=Wade In The Water
TTITLE4=Blues In The Night
TTITLE5=Songbird
TTITLE6=Need Your Love So Bad (Duet with Chuck Brown)
TTITLE7=Say Goodbye
TTITLE8=Nightbird
TTITLE9=Waly Waly
TTITLE10=How Can I Keep From Singing?
EXTD=
EXTT0=
EXTT1=
EXTT2=
EXTT3=
EXTT4=
EXTT5=
EXTT6=
EXTT7=
EXTT8=
EXTT9=
EXTT10=
PLAYORDER=
